# xmcd CD database file generated by Grip 3.0.1
# 
# Track frame offsets:
#       150
#       17470
#       33785
#       53150
#       72297
#       91965
#       110675
#       135420
#       158397
#       177457
#       219637
#       234862
#       289235
# 
# Disc length: 4113 seconds
# 
# Revision: 2
# Processed by: cddbd v1.4PL0 Copyright (c) Steve Scherf et al.
# Submitted via: Grip 3.0.1
# 
DISCID=a6100f0d
DTITLE=Joe Ely - Live At Liberty Lunch
DYEAR=1990
DGENRE=Rock
TTITLE0=Me And Billy The Kid
TTITLE1=Are You Listenin' Lucky?
TTITLE2=Grandfather Blues
TTITLE3=B.B.Q. and Foam
TTITLE4=Row Of Dominoes
TTITLE5=Dallas
TTITLE6=Where Is My Love?
TTITLE7=She Gotta Get The Gettin'
TTITLE8=Drivin To The Poorhouse In A Limousine
TTITLE9=Cool Rockin' Loretta
TTITLE10=Musta Notta Gotta Lotta
TTITLE11=Letter To L.A.
TTITLE12=If You Were A Bluebird
EXTD=
EXTT0=
EXTT1=
EXTT2=
EXTT3=
EXTT4=
EXTT5=
EXTT6=
EXTT7=
EXTT8=
EXTT9=
EXTT10=
EXTT11=
EXTT12=
PLAYORDER=
